# xmcd
#
# Track frame offsets:
#	150
#	11700
#	24588
#	39656
#	60262
#	78414
#	93177
#	103696
#	113084
#	133481
#	148502
#	157344
#	184379
#	197097
#	213820
#	250351
#
# Disc length: 4076 seconds
#
# Revision: 1
# Processed by: cddbd v1.5.2PL0 Copyright (c) Steve Scherf et al.
# Submitted via: audiograbber 1.83.01
#
DISCID=e20fea10
DTITLE=Rüdiger Bierhorst - unerreichbar
DYEAR=2009
DGENRE=Liedermacher
TTITLE0=Jazzmusikpublikum
TTITLE1=Besuch
TTITLE2=Weltklassemelodie
TTITLE3=Sehnsucht im ICE
TTITLE4=Traumfrau
TTITLE5=Betroffenheitssongwettbewerb
TTITLE6=Ich bin nicht frei
TTITLE7=Alphamännchen
TTITLE8=Armer alter lieber Suff
TTITLE9=Platonische Liebe
TTITLE10=Quizmillionär
TTITLE11=Ich hab dich lieb
TTITLE12=Trallala
TTITLE13=Politiker
TTITLE14=Mach ich nicht
TTITLE15=Daten-CD
EXTD=
EXTT0=
EXTT1=
EXTT2=
EXTT3=
EXTT4=
EXTT5=
EXTT6=
EXTT7=
EXTT8=
EXTT9=
EXTT10=
EXTT11=
EXTT12=
EXTT13=
EXTT14=
EXTT15=
PLAYORDER=
